<?xml version="1.0" encoding="UTF-8"?>
<svg id="Layer_2" data-name="Layer 2" xmlns="http://www.w3.org/2000/svg" viewBox="0 0 93.25 81.17">
  <g id="Layer_1-2" data-name="Layer 1">
    <g>
      <path d="M22.69,58.08c-2.73.07-4.26,2.86-9.36,3.09-2.11.09-4.28.51-6.19-.82-3.8-2.65-2.23-6.66-2.67-8.26-1.02-3.75-2.1-7.32-3.31-10.98-.65-1.96-1.34-3.87-1.11-5.93.26-2.26,1.03-4.17,2.58-5.81s3.62-2.56,5.61-3.69l5.46-3.11c3.13-1.78,5.57-4.39,7.14-7.58,2.1-4.28,6.09-6.71,10.89-6.37,1.06.08,2.4.09,3.41.1,1.18-.57,1.89-2.02,2.84-2.84,1.26-1.08,2.18-2.1,2.93-3.58,1.01-1.99,6.67-.7,8.01-.65l4.39.14c2.65.09,2.02,4.51.8,6.39-.48.73-.72,1.75-.05,2.43,2.16,2.2,4.67,3.92,7.69,4.82,1.2-1.16,1.54-2.7,1.56-4.31l.12-8.25c.01-.81.65-2.17,1.41-2.56s2.4-.43,3.11-.06c1.83.95,2.55,2.85,3.36,4.56,3.19,6.71,2.98,11.36,5.32,15.63,1.47,2.67,3.65,4.68,6.36,6.03,1.69.85,3.05,1.76,4.29,3.12,4.36,4.77,6.62,10.79,5.81,17.27-.32,2.53-.25,5.11-1.38,7.46-1.01,2.1-2.08,4.04-3.25,6.05-.84,1.44-1.2,3.17-2.13,4.56-1.66,2.48-4.23,4.25-6.98,5.39-1.09.45-2.54.39-3.7.19-.94-.16-1.7-.98-2.46-1.61-2.52,1.52-8.12.63-10.62-.55-2-.94-3.5-2.85-4.43-4.81-.67-1.41-.77-3.07-1.21-4.68-1.7,2.06-4.63,3.69-7.15,2.25-1.65-1.2-2.38-3.48-3.96-4.83-1.67-1.44-3.72-2.76-5.85-3.4-3.06-.91-6.02.76-8.1,2.81-1.13,1.11-2.43,2.21-3.97,2.25l-5.2.14ZM62.27,63.57c.64.77,1.41,1.67,2.24,2.17,1.43.88,3.82,1.6,5.44,1.14.39-.11,3.86-2.39,5.93-.1.38.42,1.01.88,1.56,1.03,2.29-1.11,4.2-2.61,5.77-4.56,1.07-2.47,2.2-4.82,3.59-7.15,1.62-2.72,2.68-5.56,2.64-8.77.83-4.69-.53-9.23-3.21-13.08-1.54-2.21-3.21-4.13-5.67-5.32-4.07-1.97-7.17-5.37-8.29-9.83l-2.05-8.21c-.12-.48-2.41-7.17-3.13-7.54-.19.92-.29,1.7-.35,2.68l-.15,2.38c-.11,1.78.08,8.36-2.8,8.92-4.82.94-8.63-1.4-12.11-4.55-1.15-1.04-1.82-2.78-1.24-4.28l1.58-4.1c-.73-.55-1.55-.42-2.42-.5l-5.44-.52c-.72.94-1.16,2.13-1.92,2.9l-3.52,3.64c-.88.91-1.9,1.23-3.19,1.16l-3.58-.19c-3.18-.16-6.03,2.07-7.49,4.76-2.05,3.78-4.67,6.91-8.39,9.04l-8.65,4.94c-1.89,1.08-3.22,3.03-3.72,5.07s.31,3.62.85,5.44l3.04,10.33c.22.73.44,1.76.25,2.46-.65,2.37.31,4.91,2.65,5.81,3.42,1.32,5.86-2.11,10.03-2.9,5.03-.95,4.28,1.76,8.91-2.26.47-.41.98-.87,1.44-1.2,3.44-2.5,10.23-2.8,13.97-.56,1.83,1.09,3.6,2.16,4.93,3.9l2.38,3.13,3.75-3.21c.93-.04,2.25-.09,3.14.11,1.72.4.87,4.93,3.26,7.83Z"/>
      <path d="M75.97,81.14c-1.74.17-2.76-.4-3.64-1.56-1.22-1.62-1.78-3.28-1.54-5.41.04-.36.05-1.04.21-1.3.19-.31,1.04-.4,1.42-.35,3.73.51,4.18-1.84,8.71-.75,1.9.46,1.61,6.35-2.1,9.01-.73.52-2.08.27-3.05.36ZM78.29,74.06c-1.51.57-2.98.7-4.69.65.45,1.52,1.37,3.16,2.47,4.22,1.02.78,4.5-5.73,2.22-4.87Z"/>
    </g>
  </g>
</svg>