<?xml version="1.0" encoding="UTF-8"?>
<svg id="Layer_2" data-name="Layer 2" xmlns="http://www.w3.org/2000/svg" viewBox="0 0 286.32 275.32">
  <defs>
    <style>
      .cls-1, .cls-2, .cls-3, .cls-4 {
        isolation: isolate;
      }

      .cls-2, .cls-3, .cls-4 {
        font-family: OregonLDOBlack, 'Oregon LDO Black';
        font-size: 51.05px;
      }

      .cls-3 {
        letter-spacing: -.14em;
      }

      .cls-4 {
        letter-spacing: -.04em;
      }
    </style>
  </defs>
  <g id="Layer_1-2" data-name="Layer 1">
    <g id="Logo">
      <g id="Emblem">
        <path d="M163.17,239.16c12.07,1.13,35.19,4.19,41.57,13.97,2.4,3.67.58,8.7-2.94,11.08-7.02,4.76-15.06,7.27-23.57,8.74-22.93,3.96-53.88,3.73-75.08-6.64-7.14-3.49-4.08-9.49-14.84-8.48-11.4,6.64-15.01.65-23.91-3.38-9.88,3.96-10.23-2.98-15.42,2.28-4.46,4.53-9.91,6.82-16.22,5.78-11.68-1.93-18.95-15.18-14.86-25.78,1.67-4.34,5.7-8.31,11.08-10.42,9.47-3.71,2.19-4.09,12.75-15.35-2.63-6.6-4.15-12.66-.87-19.55,2.41-5.07,6.82-9.89,13.93-11.46,5.22-1.15,1.36-7.77,2.91-14.12,2.76-11.27,15.03-17.86,25.73-14.13,8.76,3.06,3.69-13.58,23.76-18.93-41.05-25.47-34.6-76.67-21.26-115.48,1.4-4.07.76-7.72,5.89-9.75s11.23-3.84,17.43-4.69c27.92-3.8,55.78-3.81,83.69.02,6.48.89,12.34,2.55,18.08,5.1,3.42,1.52,4.14,4.67,5.15,7.82,8.69,27.27,15.43,55.3,6.2,83.46-3.41,10.4-9.56,18.63-16.92,26.38-.73,4.83-1.69,9.61-3.55,15.34,15.56-3.06,27.45,2.88,31.08,19.37,8.54-7.2,18.28-7.39,26.7-1.92,7.46,4.85,13.03,12.16,15.89,20.62l-7.84.63c5.71,4.07,3.49,10.67,5.81,14.95,4.41,8.17,10.34,15.11,12.78,24.69-12.87,2.39-25.66.63-37.99-3.77-1.89,11.07-5.11,20.52-12.24,28.91-5.89-5.9-9.74-12.68-13.93-19.95-4.79,5.53-8.58,9.99-14.13,14.3-10.06-11.45-16.1-24.55-18.99-38.91-2.18-10.85.65-20.99,8.45-28.63,7.06-6.91,15.89-9.7,26.48-7.75.64-4.08.32-8.33-2.01-11.77-4.54-6.69-26.45-1.97-33.17,2.74,4.02,11.73-.33,23.2-12.04,28.18,1.27,2.27,3.48,4.6,4.6,7.07,6.52,14.34-2.53,30.85-18.22,34.03l.04,15.38v.02ZM188.64,20.59c7.43-.95,14.23-2.04,20.69-5.95-4.95-2.77-9.47-4.1-14.75-4.91-29.11-4.47-58.63-4.49-87.73.13-5.22.83-9.69,2.12-14.1,5,7.17,3.77,13.92,4.9,21.46,5.84,24.78,3.08,49.63,3.06,74.42-.11h.01ZM208.35,53.12c-1.54-10.53-3.45-20.02-6.06-29.52-13.23,2.5-25.38,4.02-38.45,4.48-15.1.23-29.68.18-44.56-1.34-9.57-1.16-18.3-2.72-27.71-5.92-4.13,11.52-6.93,23.09-8.55,35.38,20.02-6.3,40.71-6.79,61.1-7.45l34.65.8c10.05.23,19.18,2.04,29.58,3.56h0ZM208.65,64.09c3.17.75,6.1.76,8.35-2.1-2.22-1.11-4.14-2-6.1-2.42-33.03-7.17-77.12-6.68-110.57-1.89-5.52.79-10.46,2.29-16.07,4.13,3.8,3.99,8,3.23,12.47,2.16,31.48-7.51,80.22-7.34,111.91.13h.01ZM91.08,75.2c37.45,6.28,76.2,5.93,112.54,1.46,2.82-.56,5.17-1.7,5.37-4.96-19.51,3.37-38.21,4.38-57.9,4.29-22.4-.1-46.44-.63-68.51-7.43-1.59,27.66,10.41,52.39,36.77,62.79,9.72,3.84,20.27,6.71,30.86,7.07s20.74-3.82,29.87-8.26c-9.83,1.96-19.03,3.67-28.96,4.92-7.81-1.3-15.62-1.22-22.66-4.81-20.92-10.68-34.64-31.59-37.37-55.06h0ZM174.69,144.17c2.91,1.51,5.75,2.76,7.63,2.88,6.1-2.56,9.77-7.52,11.91-13.61l-9.68,4.32c-3.82,1.71-6.93,3.33-9.86,6.4h0ZM105.67,148.82c-1.75,6.23,2.02,9.68,6.71,11.19,4.23,1.37,7.8-2.98,9.57-6.32.55-1.04,2.79-3.12,2.39-4.4-1.81-5.73-9.66-10.11-15.86-8.37-6.59,1.84-11.1,7.07-10.63,14.73.11,1.77,1.9,4.1,3.33,4.06.05-5.52-.11-9.75,4.48-10.9h0ZM156.57,220.96l-.68-34.83-.57-11.04c-.61-11.88,2.88-22.8,11.11-32.05-3.58-.79-7.6-.04-10.63,2.37-2.27,1.81-4.49,5.91-4.49,9.63l.02,83.44c0,4.45,3.66,8.74,7.61,8.6,1.44-1.9-1.59-4.29-1.64-5.81l-.72-20.31h0ZM180.98,158.69c-2.37-3.7-7.19-9.28-12.62-6.4-1.7.9-3.8,4.86-3.68,6.55l4.98,5.4c1.31,1.42,3.7,3.09,5.41,2.43,2.46-.95,6.52-7.04,5.92-7.98h-.01ZM72.01,166.55c.68,3.19,1.12,5.06,2.2,5.88,3.89,2.98,10.1-5.14,11.94-8.19-1.39-3.01-4.7-5.54-7.01-5.77-2.97-.3-6.1.71-8.44,2.44-4.7,3.5-6.58,9.9-2.45,14.29l.76-4.57c.27-1.6,1.98-3.66,3.01-4.08h0ZM140.42,178.54c.41-6.96-.14-13.15-2.04-18.97-5.47.2-9.75,4.65-11,8.82-1.6,5.31-.41,10.34,4.31,13.65-2-4.82-3.67-9.58,1.07-13.06,1.39,4.3,2.13,9.56,7.67,9.57h-.01ZM245.8,169.89l10.06-.93c-6-3.17-11.96-3.63-19.22-2.31,3.19,5.05,19.42,13.09,25.45,13.94-4.36-5.65-10.15-7.71-16.29-10.7h0ZM88.58,185.58c3.05,1.56,6.55-4.35,7.79-6.93-2.38-4.58-6.77-6.18-10.8-5.18-4.24,1.06-7.1,6.28-6.4,9.72.12.58,1.74,1.86,1.88,1.47l.65-1.87c.25-.71,1.17-2,1.79-2.24,1.72-.67,1.95,3.43,5.09,5.03h0ZM116.02,186.03c4.42-.71,4.99-5.02,3.57-8.12-.66-1.44-1.87-3.61-3.05-3.96-1.01-.3-3.38.49-4.29,1.07-4.02,2.57-5.52,7.32-2.31,10.6,1.05-2.47,1.95-4.15,3.18-4.71.47,2.1,1.49,5.34,2.9,5.11h0ZM199.75,207.19c4.79-9.21,8.38-19.15,7.26-30.16-4.24,9.44-7.89,19.19-7.26,30.16ZM234.11,206.38c1.75,4.12,2.8,7.76,5.61,10.31-1.43-13.9-6.31-25.63-12.97-37.35-1.34,13.26,2.23,24.68,6.51,36.26l.85-9.22ZM214.49,204.74l2.94,6.55c.78-10.58.77-20.18-4.15-29.41-2.7,8.71-7.09,33.52-2.81,38.79,1.99-6.03,2.97-10.71,4.02-15.94h0ZM263.41,200.02c.9-3.64-20.22-18.86-23.07-17.02,5.85,11.62,14.05,20.3,23.08,27.84-2.08-6.68-5.74-10.59-9.3-15.48l9.3,4.66h0ZM64.57,204.53c1.39-.33,3.34-2.09,4.36-3.58l3.89-5.66c-.4-4.48-5.34-8.43-9.2-9.25-5.2-1.1-9.52,1.55-12.62,5.59s-4.29,10.08.56,13.43c-.58-4.7-.09-8.9,3.21-11.06-.4,7.77,6.15,11.41,9.79,10.54h0ZM172.59,196.46l1.16,3.48c3.68-6.44-7.6-16.58-10.39-14.12-.49.43-1.14,2.18-1.07,2.9l1.23,14.13c4.8.38,6.97-3.63,9.06-6.39h.01ZM95.95,206.01c.53,1.17,3.38,2.49,4.53,2.38,4.07-.41,3.47-4.59,8.02-7.81-.12-4.76-5.32-8.68-9.01-9.04-5.32-.51-9.78,1.66-11.53,5.48-2.11,4.6-2.7,10.42,1.81,13.11-.09-4.11-.8-8.72,3.5-9.97l2.68,5.85ZM134.69,229.17c1.74.03,4.3-2.28,4.31-3.63l.04-13.3c-6.06-4.68-13.77-4.54-18.59.75-4.5,4.94-6.14,13.15.13,17.87-.26-5.18-1.49-10.65,3.45-11.81.48,5.99,4.25,10,10.66,10.12h0ZM76.61,227.08c2.54-.47,6.13-5.25,5.7-7.67-.49-2.75-4.48-5.67-6.91-6.26-4.76-1.15-8.64,2.01-10.04,5.36-1.79,4.26-1.29,9.09,3.08,11.31-1.05-3.54-2.16-7.6,1.31-9.04,1.62,2.65,3.24,6.96,6.87,6.29h0ZM50.87,230.06c3.08,1.08,6.63-3.68,4.9-5.44l-6.28-6.38c-2.1-.32-4.86,2.82-5.54,4.63-.93,2.49-.41,5.69,1.13,7.62l2.25-6.15,3.53,5.72h0ZM99.67,241.67c1.13-.07,3.48-2.3,4.58-2.74,1.86-.75,5.08-2.79,3.94-6.1-1.88-5.47-8.03-8.49-13.33-6.7s-9.22,6.52-7.68,12.57c.27,1.07,2.5,3.12,2.72,2.44.69-3.74.46-6.82,3.86-8.52-.79,4.02.6,9.4,5.91,9.06h0ZM36.59,247.28c2.74.1,5.86-4.49,4.65-6.32l-5.75-8.69c-2.82.15-5.92,2.29-7.48,4.31-2.35,3.04-4.45,6.64-.58,10.35l1.61-5.78,7.55,6.14h0ZM103.94,253.02c-10.42,8.87,35.9,25.13,80.81,12.78,3.94-1.08,15.43-5.8,14.73-10.21s-10.69-8.12-13.52-8.13c4.68,2.77,8.98,4.22,12.18,8.45-3.7,4.23-8.39,5.8-13.68,7.15-18.66,4.78-37.91,4.9-57.06,2.15-4.24-.61-23.04-4.46-23.09-10.02,3.04-2.88,6.63-4.94,10.16-6.92-3.87.47-7.52,2.2-10.53,4.76h0Z"/>
      </g>
      <g id="Est." class="cls-1">
        <text class="cls-2" transform="translate(0 141.27)"><tspan x="0" y="0">ES</tspan></text>
        <text class="cls-3" transform="translate(45.18 141.27)"><tspan x="0" y="0">T</tspan></text>
        <text class="cls-2" transform="translate(65.4 141.27)"><tspan x="0" y="0">.</tspan></text>
      </g>
      <g id="_97" data-name="&amp;apos;97" class="cls-1">
        <text class="cls-2" transform="translate(228.39 141.27)"><tspan x="0" y="0">‘</tspan></text>
        <text class="cls-4" transform="translate(237.37 141.27)"><tspan x="0" y="0">9</tspan></text>
        <text class="cls-2" transform="translate(260.96 141.27)"><tspan x="0" y="0">7</tspan></text>
      </g>
    </g>
  </g>
</svg>