<svg version="1.2" xmlns="http://www.w3.org/2000/svg" viewBox="0 0 320 320" width="320" height="320">
	<style>
		.s0 { fill: #000000 } 
	</style>
	<g id="Layer_1-2">
		<g id="Logo">
			<g id="Emblem">
				<path class="s0" d="m179.17 261.16c12.07 1.13 35.19 4.19 41.57 13.97 2.4 3.67 0.58 8.7-2.94 11.08-7.02 4.76-15.06 7.27-23.57 8.74-22.93 3.96-53.88 3.73-75.08-6.64-7.14-3.49-4.08-9.49-14.84-8.48-11.4 6.64-15.01 0.65-23.91-3.38-9.88 3.96-10.23-2.98-15.42 2.28-4.46 4.53-9.91 6.82-16.22 5.78-11.68-1.93-18.95-15.18-14.86-25.78 1.67-4.34 5.7-8.31 11.08-10.42 9.47-3.71 2.19-4.09 12.75-15.35-2.63-6.6-4.15-12.66-0.87-19.55 2.41-5.07 6.82-9.89 13.93-11.46 5.22-1.15 1.36-7.77 2.91-14.12 2.76-11.27 15.03-17.86 25.73-14.13 8.76 3.06 3.69-13.58 23.76-18.93-41.05-25.47-34.6-76.67-21.26-115.48 1.4-4.07 0.76-7.72 5.89-9.75 5.13-2.03 11.23-3.84 17.43-4.69 27.92-3.8 55.78-3.81 83.69 0.02 6.48 0.89 12.34 2.55 18.08 5.1 3.42 1.52 4.14 4.67 5.15 7.82 8.69 27.27 15.43 55.3 6.2 83.46-3.41 10.4-9.56 18.63-16.92 26.38-0.73 4.83-1.69 9.61-3.55 15.34 15.56-3.06 27.45 2.88 31.08 19.37 8.54-7.2 18.28-7.39 26.7-1.92 7.46 4.85 13.03 12.16 15.89 20.62l-7.84 0.63c5.71 4.07 3.49 10.67 5.81 14.95 4.41 8.17 10.34 15.11 12.78 24.69-12.87 2.39-25.66 0.63-37.99-3.77-1.89 11.07-5.11 20.52-12.24 28.91-5.89-5.9-9.74-12.68-13.93-19.95-4.79 5.53-8.58 9.99-14.13 14.3-10.06-11.45-16.1-24.55-18.99-38.91-2.18-10.85 0.65-20.99 8.45-28.63 7.06-6.91 15.89-9.7 26.48-7.75 0.64-4.08 0.32-8.33-2.01-11.77-4.54-6.69-26.45-1.97-33.17 2.74 4.02 11.73-0.33 23.2-12.04 28.18 1.27 2.27 3.48 4.6 4.6 7.07 6.52 14.34-2.53 30.85-18.22 34.03l0.04 15.38zm25.47-218.57c7.43-0.95 14.23-2.04 20.69-5.95-4.95-2.77-9.47-4.1-14.75-4.91-29.11-4.47-58.63-4.49-87.73 0.13-5.22 0.83-9.69 2.12-14.1 5 7.17 3.77 13.92 4.9 21.46 5.84 24.78 3.08 49.63 3.06 74.42-0.11zm19.71 32.53c-1.54-10.53-3.45-20.02-6.06-29.52-13.23 2.5-25.38 4.02-38.45 4.48-15.1 0.23-29.68 0.18-44.56-1.34-9.57-1.16-18.3-2.72-27.71-5.92-4.13 11.52-6.93 23.09-8.55 35.38 20.02-6.3 40.71-6.79 61.1-7.45l34.65 0.8c10.05 0.23 19.18 2.04 29.58 3.57zm0.3 10.97c3.17 0.75 6.1 0.76 8.35-2.1-2.22-1.11-4.14-2-6.1-2.42-33.03-7.17-77.12-6.68-110.57-1.89-5.52 0.79-10.46 2.29-16.07 4.13 3.8 3.99 8 3.23 12.47 2.16 31.48-7.51 80.22-7.34 111.91 0.13q0 0 0.01-0.01zm-117.57 11.11c37.45 6.28 76.2 5.93 112.54 1.46 2.82-0.56 5.17-1.7 5.37-4.96-19.51 3.37-38.21 4.38-57.9 4.29-22.4-0.1-46.44-0.63-68.51-7.43-1.59 27.66 10.41 52.39 36.77 62.79 9.72 3.84 20.27 6.71 30.86 7.07 10.59 0.36 20.74-3.82 29.87-8.26-9.83 1.96-19.03 3.67-28.96 4.92-7.81-1.3-15.62-1.22-22.66-4.81-20.92-10.68-34.64-31.59-37.37-55.06zm83.61 68.97c2.91 1.51 5.75 2.76 7.63 2.88 6.1-2.56 9.77-7.52 11.91-13.61l-9.68 4.32c-3.82 1.71-6.93 3.33-9.86 6.41zm-69.02 4.65c-1.75 6.23 2.02 9.68 6.71 11.19 4.23 1.37 7.8-2.98 9.57-6.32 0.55-1.04 2.79-3.12 2.39-4.4-1.81-5.73-9.66-10.11-15.86-8.37-6.59 1.84-11.1 7.07-10.63 14.73 0.11 1.77 1.9 4.1 3.33 4.06 0.05-5.52-0.11-9.75 4.48-10.9zm50.9 72.14l-0.68-34.83-0.57-11.04c-0.61-11.88 2.88-22.8 11.11-32.05-3.58-0.79-7.6-0.04-10.63 2.37-2.27 1.81-4.49 5.91-4.49 9.63l0.02 83.44c0 4.45 3.66 8.74 7.61 8.6 1.44-1.9-1.59-4.29-1.64-5.81l-0.72-20.31zm24.41-62.27c-2.37-3.7-7.19-9.28-12.62-6.4-1.7 0.9-3.8 4.86-3.68 6.55l4.98 5.4c1.31 1.42 3.7 3.09 5.41 2.43 2.46-0.95 6.52-7.04 5.92-7.98zm-108.97 7.86c0.68 3.19 1.12 5.06 2.2 5.88 3.89 2.98 10.1-5.14 11.94-8.19-1.39-3.01-4.7-5.54-7.01-5.77-2.97-0.3-6.1 0.71-8.44 2.44-4.7 3.5-6.58 9.9-2.45 14.29l0.76-4.57c0.27-1.6 1.98-3.66 3.01-4.08zm68.41 11.99c0.41-6.96-0.14-13.15-2.04-18.97-5.47 0.2-9.75 4.65-11 8.82-1.6 5.31-0.41 10.34 4.31 13.65-2-4.82-3.67-9.58 1.07-13.06 1.39 4.3 2.13 9.56 7.67 9.57q-0.01 0-0.01-0.01zm105.38-8.65l10.06-0.93c-6-3.17-11.96-3.63-19.22-2.31 3.19 5.05 19.42 13.09 25.45 13.94-4.36-5.65-10.15-7.71-16.29-10.7zm-157.22 15.69c3.05 1.56 6.55-4.35 7.79-6.93-2.38-4.58-6.77-6.18-10.8-5.18-4.24 1.06-7.1 6.28-6.4 9.72 0.12 0.58 1.74 1.86 1.88 1.47l0.65-1.87c0.25-0.71 1.17-2 1.79-2.24 1.72-0.67 1.95 3.43 5.09 5.03zm27.44 0.45c4.42-0.71 4.99-5.02 3.57-8.12-0.66-1.44-1.87-3.61-3.05-3.96-1.01-0.3-3.38 0.49-4.29 1.07-4.02 2.57-5.52 7.32-2.31 10.6 1.05-2.47 1.95-4.15 3.18-4.71 0.47 2.1 1.49 5.34 2.9 5.11zm83.73 21.16c4.79-9.21 8.38-19.15 7.26-30.16-4.24 9.44-7.89 19.19-7.26 30.16zm34.36-0.81c1.75 4.12 2.8 7.76 5.61 10.31-1.43-13.9-6.31-25.63-12.97-37.35-1.34 13.26 2.23 24.68 6.51 36.26zm-19.62-1.64l2.94 6.55c0.78-10.58 0.77-20.18-4.15-29.41-2.7 8.71-7.09 33.52-2.81 38.79 1.99-6.03 2.97-10.71 4.02-15.93zm48.92-4.72c0.9-3.64-20.22-18.86-23.07-17.02 5.85 11.62 14.05 20.3 23.08 27.84-2.08-6.68-5.74-10.59-9.3-15.48 0 0 9.3 4.66 9.29 4.66zm-198.84 4.51c1.39-0.33 3.34-2.09 4.36-3.58l3.89-5.66c-0.4-4.48-5.34-8.43-9.2-9.25-5.2-1.1-9.52 1.55-12.62 5.59-3.1 4.04-4.29 10.08 0.56 13.43-0.58-4.7-0.09-8.9 3.21-11.06-0.4 7.77 6.15 11.41 9.79 10.54zm108.02-8.07l1.16 3.48c3.68-6.44-7.6-16.58-10.39-14.12-0.49 0.43-1.14 2.18-1.07 2.9l1.23 14.13c4.8 0.38 6.97-3.63 9.06-6.39zm-76.64 9.55c0.53 1.17 3.38 2.49 4.53 2.38 4.07-0.41 3.47-4.59 8.02-7.81-0.12-4.76-5.32-8.68-9.01-9.04-5.32-0.51-9.78 1.66-11.53 5.48-2.11 4.6-2.7 10.42 1.81 13.11-0.09-4.11-0.8-8.72 3.5-9.97zm38.74 23.16c1.74 0.03 4.3-2.28 4.31-3.63l0.04-13.3c-6.06-4.68-13.77-4.54-18.59 0.75-4.5 4.94-6.14 13.15 0.13 17.87-0.26-5.18-1.49-10.65 3.45-11.81 0.48 5.99 4.25 10 10.66 10.12zm-58.08-2.09c2.54-0.47 6.13-5.25 5.7-7.67-0.49-2.75-4.48-5.67-6.91-6.26-4.76-1.15-8.64 2.01-10.04 5.36-1.79 4.26-1.29 9.09 3.08 11.31-1.05-3.54-2.16-7.6 1.31-9.04 1.62 2.65 3.24 6.96 6.87 6.29zm-25.74 2.98c3.08 1.08 6.63-3.68 4.9-5.44l-6.28-6.38c-2.1-0.32-4.86 2.82-5.54 4.63-0.93 2.49-0.41 5.69 1.13 7.62l2.25-6.15c0 0 3.53 5.72 3.54 5.72zm48.8 11.61c1.13-0.07 3.48-2.3 4.58-2.74 1.86-0.75 5.08-2.79 3.94-6.1-1.88-5.47-8.03-8.49-13.33-6.7-5.3 1.79-9.22 6.52-7.68 12.57 0.27 1.07 2.5 3.12 2.72 2.44 0.69-3.74 0.46-6.82 3.86-8.52-0.79 4.02 0.6 9.4 5.91 9.05zm-63.08 5.61c2.74 0.1 5.86-4.49 4.65-6.32l-5.75-8.69c-2.82 0.15-5.92 2.29-7.48 4.31-2.35 3.04-4.45 6.64-0.58 10.35l1.61-5.78c0 0 7.55 6.14 7.55 6.13zm67.35 5.74c-10.42 8.87 35.9 25.13 80.81 12.78 3.94-1.08 15.43-5.8 14.73-10.21-0.7-4.41-10.69-8.12-13.52-8.13 4.68 2.77 8.98 4.22 12.18 8.45-3.7 4.23-8.39 5.8-13.68 7.15-18.66 4.78-37.91 4.9-57.06 2.15-4.24-0.61-23.04-4.46-23.09-10.02 3.04-2.88 6.63-4.94 10.16-6.92-3.87 0.47-7.52 2.2-10.53 4.75z"/>
			</g>
			<g id="Est.">
				<path id="ES" class="s0" aria-label="ES"  d="m17.8 149.6v-8.1q0-1.5 0-3.2-0.1-1.8-0.1-3.6-0.1-1.8-0.2-3.5-0.1-1.8-0.1-3.3 1 0.1 2.3 0.1 1.3 0.1 2.6 0.1 1.3 0.1 2.6 0.1 1.3 0 2.4 0 1 0 2.4 0 1.3 0 2.7-0.1 1.3 0 2.6-0.1 1.3 0 2.4-0.1-0.5 2.3-0.5 2.9 0 0.6 0.5 2.9-0.3 0-0.9 0-0.7-0.1-1.3-0.1-0.7 0-1.3-0.1-0.6 0-0.8 0-1-0.1-1.8-0.2-0.8-0.1-1.6-0.1-0.9-0.1-2.1-0.1-1.1-0.1-2.9-0.1 0 0.3 0 0.5-0.1 0.2-0.1 0.5v-0.1q0 0.9-0.1 1.8 0 0.8 0 1.9 0 1.1 0 2.1 0.1 1.1 0.1 2v0.7q3.6-0.1 6.4-0.2 2.8-0.2 5.3-0.4-0.5 2.3-0.5 3 0 0.7 0.5 3-3.3-0.4-6.5-0.5-3.2-0.1-5.3-0.1v5.4q0 1.3 0 2.2 0 0.9 0 1.5 0 0.6 0 1 0.1 0.4 0.1 0.9 2.9 0 6.4-0.2 3.5-0.2 6.7-0.8-0.3 1.3-0.4 2.1-0.1 0.9-0.1 1.1 0 0.6 0.5 2.9-1 0-2.4-0.1-1.3 0-2.7-0.1-1.4 0-2.8 0-1.3-0.1-2.4-0.1-1 0-2.4 0.1-1.2 0-2.6 0-1.3 0.1-2.6 0.1-1.3 0.1-2.4 0.1 0.1-1.5 0.1-3.3 0.1-1.7 0.2-3.5 0.1-1.9 0.1-3.6 0-1.7 0-3.3zm21.2 4.6h2.7q0.3 0.8 1 1.7 0.6 0.8 1.4 1.5 0.8 0.8 1.8 1.2 1.1 0.5 2.3 0.5 2.5 0 3.9-1.6 1.4-1.6 1.4-3.8 0-1.2-0.5-2-0.4-0.9-1.3-1.5-0.8-0.6-1.8-1.1-1.1-0.5-2.2-0.9-1.6-0.7-3.3-1.5-1.5-0.7-2.8-1.9-1.3-1.1-2.1-2.8-0.8-1.7-0.8-4.3 0-2.3 0.8-4.2 0.9-1.9 2.3-3.2 1.6-1.4 3.7-2.1 2.2-0.8 4.8-0.8 2.6 0 4.6 0.8 2.1 0.8 4.2 2.4-0.7 1.3-1.1 2.7-0.4 1.3-0.9 3.1h-2.6q-0.3-0.7-0.7-1.5-0.3-0.7-0.9-1.4-0.5-0.6-1.3-1.1-0.8-0.5-1.7-0.5-2.1 0-3.4 1.3-1.3 1.2-1.3 3.2 0 1.2 0.5 2.1 0.5 0.8 1.4 1.4 0.9 0.7 1.9 1.2 1.1 0.4 2.3 0.9 1.6 0.7 3.1 1.4 1.6 0.7 2.8 1.8 1.3 1.1 2 2.7 0.8 1.6 0.8 4 0 2.4-0.9 4.6-0.8 2.2-2.5 3.8-1.6 1.6-4 2.6-2.4 1-5.5 1-1.6 0-3-0.3-1.3-0.4-2.5-0.9-1.1-0.5-2.2-1.2-0.9-0.6-1.7-1.3 0.3-0.8 0.5-1.5 0.2-0.7 0.3-1.4 0.2-0.7 0.3-1.4 0.1-0.8 0.2-1.7z"/>
				<path id="T" class="s0" aria-label="T"  d="m71.4 149.6v-8q0-1.2 0-2.2 0-1 0-2 0-0.9-0.1-1.9 0-1 0-2.2-2.3 0-5.2 0.2-2.9 0.2-5.5 0.6 0.3-1.2 0.6-2.1 0.2-0.9 0.2-1.1 0-0.2-0.2-1-0.2-0.8-0.5-1.9 1.5 0 3.3 0.1 1.8 0 3.7 0.1 1.9 0 3.7 0 1.7 0 3.3 0 1.5 0 3.3 0 1.8 0 3.7 0 1.8-0.1 3.6-0.1 1.8-0.1 3.3-0.1-0.3 1.1-0.5 1.9-0.1 0.8-0.1 1 0 0.3 0.2 1.1 0.2 0.9 0.5 2.1-2.7-0.4-5.6-0.6-2.9-0.2-5-0.2-0.1 2.1-0.1 4.1 0 2.1 0 4.2v8q0 1.6 0 3.4 0.1 1.7 0.1 3.6 0.1 1.8 0.2 3.6 0.1 1.8 0.2 3.3-1.3-0.2-2.4-0.3-0.9-0.2-1.4-0.2-0.5 0-1.6 0.2-0.9 0.1-2.3 0.3 0.1-1.5 0.2-3.3 0.1-1.8 0.1-3.6 0.2-1.9 0.2-3.6 0.1-1.8 0.1-3.4z"/>
				<path id="." class="s0" aria-label="."  d="m81.4 159.5q0-0.8 0.3-1.5 0.3-0.8 0.9-1.4 0.5-0.5 1.3-0.8 0.7-0.4 1.5-0.4 0.9 0 1.6 0.4 0.7 0.3 1.3 0.8 0.6 0.6 0.9 1.4 0.3 0.7 0.3 1.5 0 0.8-0.3 1.6-0.3 0.7-0.9 1.2-0.6 0.6-1.3 1-0.7 0.3-1.6 0.3-0.8 0-1.5-0.3-0.8-0.4-1.3-1-0.6-0.5-0.9-1.2-0.3-0.8-0.3-1.6z"/>
			</g>
			<g id="_97">
				<path id="‘" class="s0" aria-label="‘"  d="m253.8 128.3l-4 12.7v-0.1q-0.3 1-1.1 1.9-0.7 0.9-2.3 0.9-0.5 0-1.1-0.1-0.5-0.2-1-0.6-0.5-0.3-0.8-0.9-0.3-0.6-0.3-1.4 0-0.8 0.3-1.4 0.3-0.6 0.6-1.1 0 0 0-0.1 0.1-0.1 0.2-0.2l-0.2 0.2q1.5-2.5 3.2-5.5 1.8-3 3.3-5.5z"/>
				<path id="9" class="s0" aria-label="9"  d="m255.6 158.6l2.1-1.6q1.2 1.2 2.4 1.8 1.3 0.6 2.3 0.6 1.7 0 3-0.8 1.4-0.9 2.3-2.3 1-1.5 1.6-3.3 0.6-1.9 0.8-4-1.1 0.9-2.6 1.4-1.4 0.4-3.3 0.4-4.9 0-7.7-2.8-2.8-2.8-2.8-7.9 0-2.4 0.8-4.5 0.8-2.1 2.4-3.7 1.5-1.5 3.7-2.4 2.2-0.9 4.9-0.9 2.3 0 4.5 0.8 2.2 0.8 3.8 2.6 1.7 1.8 2.7 4.6 0.9 2.9 0.9 7 0 4.2-1 7.9-1.1 3.6-3 6.4-1.9 2.7-4.8 4.3-2.8 1.6-6.4 1.6-1.3 0-2.7-0.4-1.3-0.3-2.2-0.7-0.2-0.7-0.7-1.9-0.4-1.2-1-2.2zm14.7-19.7q0-2.7-1.3-4.3-1.4-1.6-3.6-1.6-2.1 0-3.5 1.9-1.3 1.9-1.3 5.2 0 3.3 1.2 4.7 1.1 1.5 3.2 1.5 1.3 0 2.2-0.6 1-0.7 1.7-1.7 0.7-1 1-2.4 0.4-1.3 0.4-2.7z"/>
				<path id="7" class="s0" aria-label="7"  d="m301 129.3v2.5q-2.1 3.6-4.4 7.6-2.3 4-4.6 8-2.2 4.1-4.4 8.2-2.2 4.1-4.1 7.9-0.8-0.2-1.5-0.3-0.6-0.2-1-0.2-0.3 0-1.6 0.3-1.2 0.3-3.1 0.7 2.2-3.5 4.7-7.6 2.5-4.1 4.8-8 2.4-4 4.4-7.4 2-3.4 3.3-5.6-2.7 0.1-6.8 0.2-4 0.1-8.8 0.4 0.1-1.1 0.2-2.1 0.2-1.1 0.2-1.6 0-0.4-0.2-1.4-0.1-1-0.2-2.1 0.9 0 2.1 0.1 1.1 0.1 2.2 0.2 1.1 0 2 0.1 1.1 0.1 1.7 0.1 0.8 0 1.9 0 1.2 0 2.4 0.1 1.3 0 2.5 0 1.2 0 2 0 0.8 0 1.4 0 0.7-0.1 1.2-0.1z"/>
			</g>
		</g>
	</g>
</svg>